<?xml version="1.0" encoding="utf-8"?>
<!-- Generator: Adobe Illustrator 20.0.0, SVG Export Plug-In . SVG Version: 6.00 Build 0)  -->
<svg version="1.1" id="Layer_1" xmlns="http://www.w3.org/2000/svg" xmlns:xlink="http://www.w3.org/1999/xlink" x="0px" y="0px"
	 viewBox="0 0 144 144" style="enable-background:new 0 0 144 144;" xml:space="preserve">
<style type="text/css">
	.st0{fill:#FFD740;}
	.st1{fill:#40C4FF;}
	.st2{fill:#263238;}
</style>
<g>
	<path class="st0" d="M64.5,74.9c0-3.9,3.1-7,7-7h4v-11c0-2.8-2.2-5-5-5h-22c-2.8,0-5,2.2-5,5v13c0,2.8,2.2,5,5,5h3c0.6,0,1,0.4,1,1
		v4.6c0,0.9,1.1,1.3,1.7,0.7l4.8-4.8c0.9-0.9,2.2-1.5,3.5-1.5L64.5,74.9z M64.5,74.9"/>
	<path class="st1" d="M98.5,74.9v13c0,2.8-2.2,5-5,5h-3c-0.6,0-1,0.4-1,1v4.6c0,0.9-1.1,1.3-1.7,0.7L83,94.4
		c-0.9-0.9-2.2-1.5-3.5-1.5h-7.9c-2.8,0-5-2.2-5-5v-13c0-2.8,2.2-5,5-5h22C96.3,69.9,98.5,72.1,98.5,74.9L98.5,74.9z M98.5,74.9"/>
	<path class="st2" d="M88.5,100c-0.4,0-0.8-0.2-1-0.4l-4.8-4.8c-0.8-0.9-2-1.3-3.2-1.3h-7.9c-3,0-5.5-2.5-5.5-5.5v-13
		c0-3,2.5-5.5,5.5-5.5h22c3,0,5.5,2.5,5.5,5.5v13c0,3-2.5,5.5-5.5,5.5h-3c-0.3,0-0.5,0.2-0.5,0.5v4.6c0,0.6-0.4,1.1-0.9,1.4
		C88.9,100,88.7,100,88.5,100L88.5,100z M71.5,70.4c-2.5,0-4.5,2-4.5,4.5v13c0,2.5,2,4.5,4.5,4.5h7.9c1.5,0,2.8,0.6,3.9,1.6l4.8,4.8
		c0.2,0.2,0.5,0.1,0.5,0.1c0.1,0,0.3-0.2,0.3-0.5v-4.6c0-0.8,0.7-1.5,1.5-1.5h3c2.5,0,4.5-2,4.5-4.5v-13c0-2.5-2-4.5-4.5-4.5H71.5z
		 M71.5,70.4"/>
	<path class="st2" d="M53.5,82c-0.2,0-0.4,0-0.6-0.1c-0.6-0.2-0.9-0.8-0.9-1.4v-4.6c0-0.3-0.2-0.5-0.5-0.5h-3c-3,0-5.5-2.5-5.5-5.5
		v-13c0-3,2.5-5.5,5.5-5.5h22c3,0,5.5,2.5,5.5,5.5v11c0,0.3-0.2,0.5-0.5,0.5S75,68.2,75,67.9v-11c0-2.5-2-4.5-4.5-4.5h-22
		c-2.5,0-4.5,2-4.5,4.5v13c0,2.5,2,4.5,4.5,4.5h3c0.8,0,1.5,0.7,1.5,1.5v4.6c0,0.3,0.2,0.4,0.3,0.5c0.1,0,0.3,0.1,0.5-0.1l4.8-4.8
		c1-1,2.4-1.6,3.9-1.6h1.9c0.3,0,0.5,0.2,0.5,0.5c0,0.3-0.2,0.5-0.5,0.5h-1.9c-1.2,0-2.3,0.5-3.2,1.3l-4.8,4.8
		C54.3,81.9,53.9,82,53.5,82L53.5,82z M92.5,76.9h-20c-0.3,0-0.5-0.2-0.5-0.5c0-0.3,0.2-0.5,0.5-0.5h20c0.3,0,0.5,0.2,0.5,0.5
		C93,76.7,92.8,76.9,92.5,76.9L92.5,76.9z M92.5,81.9h-20c-0.3,0-0.5-0.2-0.5-0.5c0-0.3,0.2-0.5,0.5-0.5h20c0.3,0,0.5,0.2,0.5,0.5
		C93,81.7,92.8,81.9,92.5,81.9L92.5,81.9z M82.5,86.9h-10c-0.3,0-0.5-0.2-0.5-0.5c0-0.3,0.2-0.5,0.5-0.5h10c0.3,0,0.5,0.2,0.5,0.5
		C83,86.7,82.8,86.9,82.5,86.9L82.5,86.9z M82.5,86.9"/>
	<path class="st2" d="M69.5,58.9h-20c-0.3,0-0.5-0.2-0.5-0.5c0-0.3,0.2-0.5,0.5-0.5h20c0.3,0,0.5,0.2,0.5,0.5
		C70,58.7,69.8,58.9,69.5,58.9L69.5,58.9z M69.5,63.9h-20c-0.3,0-0.5-0.2-0.5-0.5c0-0.3,0.2-0.5,0.5-0.5h20c0.3,0,0.5,0.2,0.5,0.5
		C70,63.7,69.8,63.9,69.5,63.9L69.5,63.9z M59.5,68.9h-10c-0.3,0-0.5-0.2-0.5-0.5c0-0.3,0.2-0.5,0.5-0.5h10c0.3,0,0.5,0.2,0.5,0.5
		C60,68.7,59.8,68.9,59.5,68.9L59.5,68.9z M78.5,47h-4c-0.3,0-0.5-0.2-0.5-0.5s0.2-0.5,0.5-0.5h4c0.3,0,0.5,0.2,0.5,0.5
		S78.8,47,78.5,47L78.5,47z M78.5,47"/>
	<path class="st2" d="M76.5,49c-0.3,0-0.5-0.2-0.5-0.5v-4c0-0.3,0.2-0.5,0.5-0.5c0.3,0,0.5,0.2,0.5,0.5v4C77,48.8,76.8,49,76.5,49
		L76.5,49z M84.5,52h-4c-0.3,0-0.5-0.2-0.5-0.5c0-0.3,0.2-0.5,0.5-0.5h4c0.3,0,0.5,0.2,0.5,0.5C85,51.8,84.8,52,84.5,52L84.5,52z
		 M84.5,52"/>
	<path class="st2" d="M82.5,54c-0.3,0-0.5-0.2-0.5-0.5v-4c0-0.3,0.2-0.5,0.5-0.5c0.3,0,0.5,0.2,0.5,0.5v4C83,53.8,82.8,54,82.5,54
		L82.5,54z M91,65.4H79.5c-0.3,0-0.5-0.2-0.5-0.5c0-0.3,0.2-0.5,0.5-0.5H91c0.3,0,0.5,0.2,0.5,0.5C91.5,65.2,91.3,65.4,91,65.4
		L91,65.4z M95,65.4h-2c-0.3,0-0.5-0.2-0.5-0.5c0-0.3,0.2-0.5,0.5-0.5h2c0.3,0,0.5,0.2,0.5,0.5C95.5,65.2,95.3,65.4,95,65.4L95,65.4
		z M62.5,86.9H51c-0.3,0-0.5-0.2-0.5-0.5c0-0.3,0.2-0.5,0.5-0.5h11.5c0.3,0,0.5,0.2,0.5,0.5C63,86.7,62.8,86.9,62.5,86.9L62.5,86.9z
		 M62.5,86.9"/>
	<path class="st2" d="M49,86.9h-2c-0.3,0-0.5-0.2-0.5-0.5c0-0.3,0.2-0.5,0.5-0.5h2c0.3,0,0.5,0.2,0.5,0.5
		C49.5,86.7,49.3,86.9,49,86.9L49,86.9z M49,86.9"/>
</g>
</svg>
